# xmcd CD database file
#
# Track frame offsets:
#	150
#	26802
#	56145
#	79486
#	104035
#	128316
#	149086
#	173964
#	195311
#	219050
#	251523
#	332550
#
# Disc length: 4440 seconds
#
# Revision: 2
# Processed by: cddbd v1.5.1PL0 Copyright (c) Steve Scherf et al.
# Submitted via: CDex 1.51
#
DISCID=ad11560c
DTITLE=渡辺美里 - Blue Butterfly
DYEAR=2004
DGENRE=JPop
TTITLE0=ミッドナイト パフェ
TTITLE1=Blue Butterfly
TTITLE2=茉莉花〜ジャスミン〜
TTITLE3=amagumo
TTITLE4=蝶のように花のように 〜You are the only one!〜
TTITLE5=Smile
TTITLE6=Do Da Dance!〜オンタイムではじまるよ〜
TTITLE7=十の秘密
TTITLE8=Heart of Gold
TTITLE9=悲しい口づけ
TTITLE10=data1
TTITLE11=data2
EXTD=YEAR: 2004
EXTT0=
EXTT1=
EXTT2=
EXTT3=
EXTT4=
EXTT5=
EXTT6=
EXTT7=
EXTT8=
EXTT9=
EXTT10=
EXTT11=
PLAYORDER=
